<svg width="759.52257" height="640.54882" xmlns="http://www.w3.org/2000/svg">

 <g>
  <title>background</title>
  <rect fill="none" id="canvas_background" height="402" width="582" y="-1" x="-1"/>
 </g>
 <g>
  <title>Layer 1</title>
  <rect id="svg_1" fill="#e6e6e6" height="447.88877" width="699.3405" y="0.39646" x="11.61886"/>
  <rect id="svg_2" fill="#fff" height="365.21521" width="659.34554" y="56.57288" x="31.61634"/>
  <rect id="svg_3" fill="#78c0e0" height="29.71054" width="699.3405" x="11.32025"/>
  <circle id="svg_4" fill="#fff" r="5.50662" cy="15.1896" cx="33.39874"/>
  <circle id="svg_5" fill="#fff" r="5.50662" cy="15.1896" cx="54.3005"/>
  <circle id="svg_6" fill="#fff" r="5.50662" cy="15.1896" cx="75.20225"/>
  <polygon id="svg_7" fill="#a0616a" points="747.941 576.821 753.08 597.379 730.468 603.546 728.412 581.961 747.941 576.821"/>
  <polygon id="svg_8" fill="#a0616a" points="665.713 602.518 665.713 622.047 643.099 626.159 638.988 615.88 647.211 598.407 665.713 602.518"/>
  <path id="svg_9" fill="#2f2e41" d="m710.938176,389.751414l-3.08355,27.75217l2.0557,53.44864s0,5.13926 3.08356,7.195c1.654,1.12324 38.03077,102.78582 38.03077,102.78582s-8.22286,10.2786 -23.64072,7.195l-3.08356,-10.27863s-4.11145,-13.36215 -6.16715,-16.44571s-32.89147,-65.78294 -32.89147,-65.78294l-14.39,-25.69647l-4.11148,34.9472s8.22286,44.19792 6.16715,64.75509s-6.16715,42.14218 -6.16715,42.14218l-24.66861,-4.11145a17.162,17.162 0 0 0 -3.08356,-9.25071c-3.08356,-4.11145 -2.0557,-18.50146 -2.0557,-18.50146l0,-3.08356l-6.1672,-79.14506l-11.30643,-103.81367l91.4794,-4.11144z"/>
  <circle id="svg_10" fill="#a0616a" r="27.75217" cy="174.92904" cx="641.04382"/>
  <polygon id="svg_11" fill="#a0616a" points="665.199 175.443 676.505 203.195 649.781 222.725 633.335 193.944 665.199 175.443"/>
  <path id="svg_12" fill="#3f3d56" d="m666.740276,196.514074l10.2786,-5.13929l6.16715,14.39s40.08648,12.3343 37.00292,68.86651s-10.27867,78.11724 -10.27867,78.11724s17.47361,37.00289 7.195,41.11432s-97.64656,19.52929 -99.70227,5.13928s7.195,-98.67439 7.195,-98.67439s-3.08356,-60.64364 22.61287,-72.97793l-5.13919,-11.3064l24.66859,-19.52934z"/>
  <path id="svg_13" fill="#a0616a" d="m610.208066,395.918564s-23.64072,24.66859 -10.27856,30.83574s21.585,-27.75217 21.585,-27.75217l-11.30644,-3.08357z"/>
  <path id="svg_14" fill="#2f2e41" d="m658.517396,616.908104l11.30646,-4.11145s12.3343,27.75217 2.0557,27.75217l-26.72428,0s-15.41786,-5.1393 -23.64072,-5.1393s-23.64076,-15.41787 -12.3343,-22.61287s25.69646,-5.1393 25.69646,-5.1393l4.11145,-9.25071l5.1393,14.39s6.16707,10.27861 14.38993,4.11146z"/>
  <path id="svg_15" fill="#2f2e41" d="m741.773906,594.295194s6.43659,-4.06146 9.8994,-2.54463s5.5185,17.96253 5.5185,17.96253s10.27861,12.33431 -12.3343,14.39s-27.75217,-2.0557 -29.80788,-8.22285s2.05571,-12.33431 2.05571,-12.33431l6.16715,-2.0557s7.195,-5.13931 5.1393,-7.195s0,-6.16715 0,-6.16715s7.19497,14.38997 13.36212,6.16711z"/>
  <path id="svg_16" fill="#2f2e41" d="m650.536156,174.484324a13.61976,13.61976 0 0 0 -0.60363,-2.64083c-1.4916,-3.1293 -7.31137,-2.21593 -8.34839,-5.5238c-0.20294,-0.64739 -0.16053,-1.35161 -0.35936,-2.00026c-0.5071,-1.654 -2.45243,-2.47435 -4.18063,-2.395a22.585,22.585 0 0 0 -5.01088,1.29029c-4.06606,1.15395 -8.39194,0.71346 -12.59454,0.2636a12.67215,12.67215 0 0 1 -5.37745,-1.39981c-1.59159,-0.97906 -2.73829,-2.95 -2.15887,-4.7265c0.55551,-1.70327 2.41943,-2.63921 3.2575,-4.22269c1.33078,-2.5144 -0.296,-5.76184 0.78363,-8.39389c1.73183,-4.22223 8.28581,-3.37443 11.61554,-6.49522c0.80824,-0.75751 1.39023,-1.72588 2.16486,-2.51767c2.29837,-2.34916 5.9281,-2.80392 9.19855,-2.47983s6.48427,1.28445 9.77024,1.22634c3.11627,-0.05511 6.38289,-1.00409 9.25425,0.208a13.19858,13.19858 0 0 1 4.34712,3.57115l7.36491,8.07749a9.07755,9.07755 0 0 1 2.27637,3.42883c0.44309,1.54768 0.03524,3.20935 0.2243,4.80807c0.43111,3.64612 3.84461,6.40012 4.30518,10.04265a13.05932,13.05932 0 0 1 -0.16244,3.38221l-1.0316,7.60654a5.66072,5.66072 0 0 1 -0.58126,2.13149c-0.3,0.51257 -0.75364,0.91739 -1.09137,1.40595c-0.95362,1.37939 -0.86659,3.20272 -1.34048,4.81129c-0.47386,1.60839 -2.17325,3.20024 -3.65976,2.425c-0.96979,-0.50576 -1.61143,-4.68831 -2.78955,-5.77421c-1.641,-1.51253 -2.49822,-1.32611 -4.5237,-1.30051c-4.05656,0.05131 -9.45056,0.39915 -10.74854,-4.80868z"/>
  <path id="svg_17" fill="#3f3d56" d="m655.433846,234.544844s30.83572,12.3343 21.585,40.08648s-33.91932,113.06438 -33.91932,113.06438l-14.39,7.195l-4.11145,11.30644l-19.52931,-7.195l3.08355,-15.41788l7.195,-15.41786l18.50146,-115.12012s0.00001,-19.52932 21.58507,-18.50144z"/>
  <polygon id="svg_18" opacity="0.1" points="678.561 280.284 646.697 389.237 633.335 402.6 641.044 388.723 678.561 280.284"/>
  <path id="svg_19" fill="#fbbebe" d="m51.198666,297.905414l6.008,42.72331l25.367,45.39352c7.34307,6.67552 0.66755,22.69676 0.66755,22.69676l-6.67552,-4.67286l-1.3351,-8.01062s-29.37232,-33.37763 -36.71542,-41.38825s-10.01328,-52.069 -10.01328,-52.069l22.69677,-4.67286z"/>
  <path id="svg_20" fill="#fbbebe" d="m29.089756,587.633464s1.3351,15.35369 0.66755,19.359s-20.69411,-0.66755 -20.69411,-0.66755c3.33776,-6.67552 5.34042,-26.70207 5.34042,-26.70207l14.68614,8.01062z"/>
  <path id="svg_21" fill="#fbbebe" d="m128.555006,591.638774s2.00266,21.36165 1.3351,25.367s-20.6941,-0.66756 -20.6941,-0.66756c3.33776,-6.67551 5.34041,-26.70207 5.34041,-26.70207l14.01859,2.00263z"/>
  <circle id="svg_22" fill="#fbbebe" r="24.2809" cy="224.90381" cx="87.6473"/>
  <path id="svg_23" fill="#fbbebe" d="m91.839616,247.849614c-4.00531,5.34041 -2.00265,14.68614 -2.00265,14.68614s-40.72069,47.39617 -48.06369,47.39617s-6.008,-33.37759 -6.008,-33.37759s10.68083,-12.68348 16.68884,-15.35369s16.68879,-31.37493 16.68879,-31.37493s26.70202,12.68348 22.69671,18.0239z"/>
  <path id="svg_24" fill="#2f2e41" d="m119.209276,338.636654l26.13063,43.894c4.76906,7.84618 -4.10143,47.56062 -4.10143,47.56062l-4.00531,84.77907l-6.67551,85.42539l0,9.34568l-22.02921,-0.66755l-7.34307,-91.43335l-10.68083,-68.75783l-17.35635,52.73659l-28.70472,64.75252a177.45051,177.45051 0 0 1 -9.01328,23.35369l-5.34041,9.34573l-20.02125,-2.34042l30.3696,-102.45458l6.008,-66.75518c0.6676,-37.3829 12.68353,-58.077 12.68353,-58.077l0,-8.01062l60.07961,-22.69676z"/>
  <path id="svg_25" fill="#2f2e41" d="m27.754646,603.654704s3.33776,-5.34041 3.33776,-3.33776s8.67817,7.34307 8.67817,7.34307s8.67818,-1.3351 10.01328,8.67817s-12.01593,12.01594 -15.35369,11.34838s-12.01593,0.66756 -12.01593,0.66756s-6.67552,1.3351 -17.35635,0s-1.3351,-19.359 0,-22.69676s8.01062,-0.66756 8.01062,-0.66756c12.01594,3.33776 14.68614,-1.3351 14.68614,-1.3351z"/>
  <path id="svg_26" fill="#2f2e41" d="m127.887456,613.667984s3.33776,-5.34042 3.33776,-3.33776s8.67817,7.34307 8.67817,7.34307s8.67817,-1.33511 10.01328,8.67817s-12.01593,12.01595 -15.35369,11.34838s-12.01593,0.66755 -12.01593,0.66755s-6.67552,1.33511 -17.35635,0s-1.3351,-19.359 0,-22.69676s8.01062,-0.66755 8.01062,-0.66755c12.01596,3.33776 14.68614,-1.3351 14.68614,-1.3351z"/>
  <path id="svg_27" fill="#3f3d56" d="m81.826346,261.868194c16.68879,-17.35634 34.71269,26.03452 34.71269,26.03452s6.008,16.02125 1.3351,24.69942s4.67284,28.03718 4.67284,28.03718c-22.86077,19.46112 -45.64184,37.45312 -66.75512,24.6994c2.67016,-16.02124 -6.008,-24.03186 -12.016,-39.38555s-17.35635,-12.01593 -17.35635,-12.01593s0.66755,-17.35634 2.67021,-31.37493s20.02659,-19.28246 20.02659,-19.28246c3.26759,5.87003 16.02124,15.9447 32.71004,-1.41165z"/>
  <path id="svg_28" fill="#fbbebe" d="m111.198666,289.905414l6.008,42.72331l25.367,45.39352c7.34307,6.67552 0.66755,22.69676 0.66755,22.69676l-6.67552,-4.67286l-1.3351,-8.01062s-29.37232,-33.37763 -36.71542,-41.38825s-10.01328,-52.069 -10.01328,-52.069l22.69677,-4.67286z"/>
  <path id="svg_29" fill="#3f3d56" d="m115.203976,296.580894l-28.03718,3.33776s-2.00265,-32.71 2.23107,-40.87906s19.79814,0.826 19.79814,0.826c4.00527,0.6675 6.00797,36.7153 6.00797,36.7153z"/>
  <path id="svg_30" fill="#2f2e41" d="m114.829946,210.845414c-17.95534,8.97415 -7.59607,33.47737 -9.71528,43.75879c-3.471,16.8401 -54.65742,8.2821 -54.65742,8.2821c-6.22762,-1.12021 -10.023,-70.4068 24.08241,-69.79416c17.19133,0.3088 55.67039,10.06621 40.29029,17.75327z"/>
  <ellipse id="svg_31" fill="#fbbebe" ry="4" rx="2.5" cy="228.14987" cx="103.8839"/>
  <path id="svg_32" fill="#e6e6e6" d="m202.177946,142.567414c26.39,4.87 53.31,0 79.59,-3.3l79.87,-10c3.23,-0.41 7.93,-2.34 9.83,1.61c1.07,2.21 0.35,7 0.43,9.54c0.21,7 0.19,14 0,21c-0.36,13.38 -1.34,26.73 -2.59,40.05c-2.43,26.07 -5.87,52 -7.59,78.17c-0.88,13.32 -1.32,26.68 -0.93,40c0.09,3.18 0.22,6.36 0.41,9.53c0.21,3.55 1.8,8.82 -2.07,11.19c-2.21,1.36 -6.56,1.29 -9.09,1.69c-4,0.63 -8,1.13 -12.08,1.54c-26.89,2.69 -54.13,1.57 -81.12,1.41l-81.5,-0.42l-19.88,-0.11c-1.8,0 -8.29,1.08 -9.4,-1.06c-0.47,-0.91 0.78,-5.17 1,-6.31q0.46,-2.82 1,-5.63c2.32,-13.15 5.06,-26.22 7.82,-39.28c5.93,-28 12,-56.14 14.44,-84.74c1.21,-14.35 0.41,-28.83 1.89,-43.15c0.69,-6.65 1.51,-21.49 10.36,-22.08c7.5,-0.5 15.22,0 22.74,0a1.5,1.5 0 0 0 0,-3c-7.1,0 -14.21,-0.19 -21.31,-0.05c-4.72,0.09 -8,1.21 -10.25,5.55c-5.75,11.14 -5.16,26 -5.34,38.16c-0.43,29.11 -4.9,57.6 -10.72,86.07c-2.93,14.33 -6.09,28.61 -9,42.95c-1.37,6.85 -2.68,13.72 -3.88,20.61c-0.56,3.28 -3.39,10.51 -0.9,13.52s10.15,1.39 13.58,1.41l23.86,0.14l45.72,0.26c29.54,0.17 59.18,1 88.71,0.13c14.1,-0.42 29,-1 42.73,-4.37c4.09,-1 6.06,-2.88 6.22,-7.24c0.24,-6.76 -0.86,-13.73 -1,-20.52c-1,-58.1 12.65,-115.39 11.25,-173.51c-0.09,-3.95 1.4,-13.91 -2.92,-16.3c-1.94,-1.08 -4.46,-0.49 -6.5,-0.25c-3.9,0.45 -7.79,1 -11.69,1.46l-50.65,6.32c-16.19,2 -32.37,4.16 -48.59,6c-17.17,2 -34.51,3.19 -51.62,0c-1.89,-0.35 -2.7,2.54 -0.8,2.89l-0.03,0.12z"/>
  <path id="svg_33" fill="#e6e6e6" d="m170.337956,177.917414l199.82,-9.8c1.93,-0.1 1.94,-3.1 0,-3l-199.82,9.8c-1.92002,0.09 -1.92999,3.09 0,3z"/>
  <path id="svg_34" fill="#e6e6e6" d="m231.897956,153.187414a5,5 0 0 0 1.77,8.07c2.69,1.23 5.85,0.2 8.52,-0.47c4,-1 8,-1.89 12.11,-2.62a165.14989,165.14989 0 0 1 27.09,-2.52c4.14,-0.05 8.25,0.14 12.39,0.32c3,0.12 6.23,0.36 8.77,-1.5c2.9,-2.12 3.84,-6.26 1,-8.84c-4,-3.65 -12.62,-1.53 -17.24,-1.15a386.61732,386.61732 0 0 0 -49.86,7.44c-1.88,0.4 -1.09,3.3 0.8,2.89q16.27,-3.51 32.79,-5.64q8.12,-1 16.27,-1.69c2.56,-0.21 5.12,-0.4 7.68,-0.55c1,-0.06 2.06,-0.17 3.08,-0.14c3.17,0.07 3.54,-0.5 1.64,3.33c-1.69,3.39 -1.15,3 -4.08,2.89c-1.24,0 -2.48,-0.14 -3.72,-0.2q-3.81,-0.16 -7.62,-0.17q-8.11,0 -16.18,0.78c-4.56,0.44 -9.11,1.06 -13.62,1.86c-2.82,0.5 -5.62,1.08 -8.41,1.72c-1.23,0.29 -2.47,0.59 -3.7,0.9c-0.59,0.16 -1.19,0.3 -1.78,0.45q-3.28,1.14 -5.59,-3c1.34,-1.39 -0.77,-3.52 -2.12,-2.12l0.01,-0.04z"/>
  <path id="svg_35" fill="#e6e6e6" d="m268.117956,195.867414c-14.47,-0.56 -30.1,3.35 -39.63,15c-7.46,9.11 -11.71,24.74 -3.81,35c8.49,11 27.11,9.06 38.34,4.37c11.88,-5 24.88,-15.31 28.45,-28.21c4.45,-16.11 -10,-28.29 -25.05,-28.47a1.501,1.501 0 0 0 0,3c8.58,0.1 17,3.78 21,11.77c4.19,8.42 0.58,17.26 -5,24c-8.94,10.73 -22.92,18.82 -37.16,18.59c-8.55,-0.13 -18,-3.06 -20.65,-12.08c-2.18,-7.31 -0.52,-15.3 3.28,-21.78c8.22,-14 24.95,-18.74 40.29,-18.14c1.93,0.07 1.93,-2.93 0,-3l-0.06,-0.05z"/>
  <path id="svg_36" fill="#e6e6e6" d="m253.747956,218.087414a3.9,3.9 0 0 0 -5.24,4c0.3,3.9 4.6,5 7.83,4.77c2.79,-0.24 6.05,-1.27 5.07,-4.76a4.47991,4.47991 0 0 0 -2.44,-2.82a5.64988,5.64988 0 0 0 -2.82,-0.35c-0.37,0 -3.76,1.24 -2.32,-0.25l-2.36,-0.31a2.45994,2.45994 0 0 1 0.72,2a1.51,1.51 0 0 0 2.25,1.29a2,2 0 0 1 2.71,2.34a1.51,1.51 0 0 0 2.74,1.16c1,-1.8 2.21,-5.38 0.71,-7.26c-1,-1.27 -2.93,-0.89 -4.13,-0.15a14.4701,14.4701 0 0 0 -2.06,1.77c-1.21,1.07 -2,1.57 -1.55,-0.48c0.75,-3.73 4.31,-6.7 7.56,-8.19l-2.2,-1.69a31.61976,31.61976 0 0 1 -6.05,11.85l2.56,1.06a6.68,6.68 0 0 1 4.08,-6.51l-1.47,0l0.78,1.28c-0.29,1.89 2.6,2.7 2.89,0.79c0.38,-2.47 -1.18,-5.68 -4.07,-4.47c-3.45,1.44 -5.24,5.39 -5.17,8.91c0,1.2 1.7,2.13 2.57,1.07a35.25979,35.25979 0 0 0 6.81,-13.19a1.52,1.52 0 0 0 -2.21,-1.69a16.76983,16.76983 0 0 0 -7.28,6.34c-1.22,2 -2.75,5.12 -1.51,7.42a3.18,3.18 0 0 0 4.3211,1.24618l0.0289,-0.01617a11.69984,11.69984 0 0 0 2.51,-2c0.37,-0.33 0.78,-0.9 1.27,-1c0.44,-0.3 0.42,-0.13 -0.07,0.53a5.45012,5.45012 0 0 1 -0.87,2.92l2.74,1.15a5,5 0 0 0 -7.11,-5.73l2.26,1.3a5.45,5.45 0 0 0 -1.13,-3.53a1.52,1.52 0 0 0 -2.35,-0.31c-1.52,1.59 -1.81,4.34 0.1,5.81c1.43,1.09 2.13,0 3.7,-0.25c5.33,-0.69 2.22,1.71 0.34,1.79a7.08966,7.08966 0 0 1 -2.51,-0.18q-3.13,-1.06 -0.39,-2.73c1.79,0.73 2.56,-2.17 0.8,-2.89l-0.04,-0.04001z"/>
  <path id="svg_37" fill="#e6e6e6" d="m251.337956,223.567414c1.23,4 -3.85,5.32 -6.26,6.7a13.94006,13.94006 0 0 0 -4.33,3.79c-2.52,3.38 -3.46,7.68 -4.29,11.73c-0.38,1.89 2.51,2.69 2.9,0.8a34,34 0 0 1 2.53,-8.63c1.8,-3.58 4.38,-4.78 7.74,-6.62s5.79,-4.69 4.6,-8.57c-0.56,-1.84 -3.46,-1.05 -2.89,0.8z"/>
  <path id="svg_38" fill="#e6e6e6" d="m256.337956,221.557414a2.9,2.9 0 0 0 -2.5,3c0,1.19 0.79,1.95 1.33,2.9a22.89933,22.89933 0 0 1 2.9,6.31c0.48,2.15 0.95,6 -0.17,8c-2.07,3.71 -5.81,3 -9,3c-3,0 -5.32,1 -5.22,-3.18c0.06,-2.35 1.7,-4.73 3,-6.58l-2.74,-0.36a52.27123,52.27123 0 0 1 0.91,9.26c0,1.39 2.13,2.16 2.79,0.75a57.93054,57.93054 0 0 0 3.81,-10.54l-2.95,-0.4l0.52,7.6a1.51,1.51 0 0 0 2.79,0.76a3.3997,3.3997 0 0 0 0.75,-1.35c0.1,-0.47 -0.82,-3.64 -1.19,-2.51l2.94,0.4l0.21,-7.22l-3,0.4a14.94031,14.94031 0 0 1 0.56,6.3c-0.19,1.67 2.62,2.05 3,0.4l1.88,-9.7l-2.74,0.35a6.63006,6.63006 0 0 1 0.51,4.32c-0.22,1.92 2.78,1.9 3,0a10.54011,10.54011 0 0 0 -0.92,-5.83a1.51,1.51 0 0 0 -2.74,0.36l-1.89,9.7l2.95,0.4a16.3605,16.3605 0 0 0 -0.67,-7.09a1.5,1.5 0 0 0 -2.94,0.39l-0.21,7.22a1.50706,1.50706 0 0 0 2.95,0.4l0.16,-0.49a1.52,1.52 0 0 0 -0.38,-1.46c-3.11,-3.38 -3.74,2 -4.82,3.49l2.8,0.76l-0.52,-7.6c-0.11,-1.62 -2.51,-2.12 -2.95,-0.4a53.7608,53.7608 0 0 1 -3.5,9.83l2.8,0.76a56.54012,56.54012 0 0 0 -1,-10.06c-0.26,-1.38 -2.07,-1.32 -2.74,-0.36c-2,2.88 -5.46,9.17 -2.79,12.62c2.33,3 9.66,1.84 12.79,1.65c4.94,-0.28 6.73,-3.41 7.27,-8.07a19.75928,19.75928 0 0 0 -0.37,-6.68c-0.27,-1.18 -3,-8.66 -3.82,-8.51c1.9,-0.35 1.09,-3.25 -0.8,-2.9l-0.05,-0.04z"/>
  <path id="svg_39" fill="#e6e6e6" d="m250.527956,228.297414l-8.19,10.81l2.59,1.51l6,-8.68l-2.74,-1.16l-2.99,11.41a1.51,1.51 0 0 0 2.74,1.16a52.71373,52.71373 0 0 1 4.57,-6.43l-2.5,-1.46a16.33,16.33 0 0 1 -3.77,6.93l2.51,1.46a13.40018,13.40018 0 0 1 1.09,-4c0.77,-1.73 -1.67,-3.26 -2.59,-1.52a35.209,35.209 0 0 1 -2.89,4.54l2.74,0.36l0.61,-2.85l-2.74,-0.36l0.44,2.5a1.51,1.51 0 0 0 2.51,0.66a29.85955,29.85955 0 0 0 6,-9.05l-2.58,0a13.47038,13.47038 0 0 1 1.41,4c0.36,1.8 2.75,1.13 2.94,-0.4a81.30872,81.30872 0 0 0 0.66,-10.1l-3,0l0,6.29c0,1.63 2.67,2.11 2.95,0.4a11.46007,11.46007 0 0 1 1.47,-4.3l-2.63,0a6.67011,6.67011 0 0 1 1,3.4a1.5,1.5 0 0 0 3,0l0.38,-2l-2.89,0c0.29,1.77 1.39,11.74 -2.52,10.57c-0.66,-0.16 -0.85,-0.12 -0.57,0.11l0.89,-1.9l2.09,-4.43l-2.8,-0.76c0.18,2.06 0.37,5 -0.87,6.76c-1,1.43 -4.08,2 -5.65,1.16a10.00016,10.00016 0 0 1 -2.61,-2.74l-2.05,2c1.66,1.21 4.35,4.18 6.49,4.35c1.63,0.13 3,-1.22 4.07,-2.3a17.43006,17.43006 0 0 0 4.89,-12.83a1.5,1.5 0 0 0 -3,0l0,3.42a1.5,1.5 0 0 0 3,0l0,-8.39a1.5,1.5 0 0 0 -3,0a35.99883,35.99883 0 0 1 -0.52,6l2.95,0.4a69.06162,69.06162 0 0 1 -0.33,-7.19a1.5,1.5 0 0 0 -2.94,-0.4c-0.45,1.91 -1,3.79 -1.53,5.66l2.74,-0.36l-0.21,-0.8c-0.14,-1.91 -3.14,-1.92 -3,0a5.4903,5.4903 0 0 0 0.62,2.32c0.58,1.22 2.39,0.79 2.74,-0.36c0.57,-1.88 1.08,-3.76 1.53,-5.66l-2.95,-0.4a69.06143,69.06143 0 0 0 0.33,7.19c0.15,1.54 2.63,2.2 2.94,0.4a41.32765,41.32765 0 0 0 0.63,-6.84l-3,0l0,8.39l3,0l0,-3.42l-3,0a14.42,14.42 0 0 1 -3.65,10.27984a12.28529,12.28529 0 0 1 -1.26,1.24c-0.71,0.68 -1.36,0.58 -1.93,-0.31c-1.42,-0.59 -2.89,-2.11 -4.13,-3s-2.94,0.87 -2.06,2.05c2.3,3.06 5.73,6.47 10,5c4.49,-1.59 5.1,-7.67 4.76,-11.67c-0.11,-1.33 -2.1,-2.23 -2.79,-0.75c-1,2.11 -2,4.21 -3,6.33a5.59267,5.59267 0 0 0 -0.9,2.64c0.33,2.25 3.06,1.88 4.74,1.75c6.51,-0.49 5.48,-9.72 4.73,-14.36c-0.25,-1.54 -2.49,-1.3 -2.89,0a8.82977,8.82977 0 0 0 -0.49,2.84l3,0a11.89014,11.89014 0 0 0 -1.41,-4.91a1.51,1.51 0 0 0 -2.59,0a14.58031,14.58031 0 0 0 -1.78,5l3,0.4l0,-6.29a1.5,1.5 0 0 0 -3,0a81.30872,81.30872 0 0 1 -0.66,10.1l2.95,-0.4a17.1703,17.1703 0 0 0 -1.71,-4.68a1.51,1.51 0 0 0 -2.59,0a27.36029,27.36029 0 0 1 -5.53,8.44l2.51,0.66l-0.44,-2.5c-0.23,-1.33 -2.11,-1.37 -2.74,-0.36a6.57993,6.57993 0 0 0 -0.91,5.16c0.25,1.42 2.05,1.27 2.74,0.36a35.09787,35.09787 0 0 0 2.89,-4.53l-2.59,-1.52a17.05981,17.05981 0 0 0 -1.4,4.71c-0.18,1.32 1.39,2.7 2.51,1.46a20,20 0 0 0 4.54,-8.26c0.37,-1.36 -1.51,-2.65 -2.51,-1.46a57.28759,57.28759 0 0 0 -5,7l2.74,1.16l3.05,-11.37a1.51,1.51 0 0 0 -2.74,-1.16l-6,8.69c-1.12,1.61 1.45,3 2.59,1.51l8.16,-10.8c1.16,-1.54 -1.44,-3 -2.59,-1.52l-0.08,0.00016z"/>
  <path id="svg_40" fill="#e6e6e6" d="m378.107976,264.387414c12,-7.34 21.54,-18.29 32.14,-27.45c11.5,-9.93 23.57,-19.18 36,-27.94c24.14,-17 49.49,-32.21 74.82,-47.38a1.5,1.5 0 0 0 -1.51,-2.59c-25.33,15.17 -50.69,30.35 -74.83,47.38c-11.39,8 -22.51,16.48 -33.17,25.48c-11.6,9.8 -21.93,22 -35,29.91c-1.65,1 -0.14,3.6 1.51,2.59l0.04,0z"/>
  <path id="svg_41" fill="#e6e6e6" d="m559.797976,115.037414c-13,1.32 -27,4.63 -35,16c-6.91,9.78 -6.76,26.84 -0.27,36.88c7.37,11.41 22.43,11.82 34.13,8.13s23.81,-10.16 23.7,-24.14c-0.06,-7.5 -2.77,-15.31 -5.76,-22.11c-2.58,-5.87 -7.15,-11 -14.07,-10.35c-1.91,0.18 -1.93,3.18 0,3c9.27,-0.86 12.25,10.15 14.45,17.1c2,6.49 3.85,14.17 0.71,20.62s-10.71,9.74 -17.18,12.1c-7,2.54 -14.69,4.09 -22,2c-14.48,-4.05 -18.48,-22.4 -14.31,-35.42c4.8,-15 21.8,-19.41 35.65,-20.81c1.9,-0.19 1.92,-3.19 0,-3l-0.05,0z"/>
  <path id="svg_42" fill="#e6e6e6" d="m579.797976,231.037414c-13,1.32 -27,4.63 -35,16c-6.91,9.78 -6.76,26.84 -0.27,36.88c7.37,11.41 22.43,11.82 34.13,8.13s23.81,-10.16 23.7,-24.14c-0.06,-7.5 -2.77,-15.31 -5.76,-22.11c-2.58,-5.87 -7.15,-11 -14.07,-10.35c-1.91,0.18 -1.93,3.18 0,3c9.27,-0.86 12.25,10.15 14.45,17.1c2,6.49 3.85,14.17 0.71,20.62s-10.71,9.74 -17.18,12.1c-7,2.54 -14.69,4.09 -22,2c-14.48,-4.05 -18.48,-22.4 -14.31,-35.42c4.8,-15 21.8,-19.41 35.65,-20.81c1.9,-0.19 1.92,-3.19 0,-3l-0.05,0z"/>
  <path id="svg_43" fill="#e6e6e6" d="m540.187926,144.247414l9.47,10.8a1.51,1.51 0 0 0 2.5,-0.67c2,-5.26 1.62,-10.71 2.09,-16.24a53.46994,53.46994 0 0 1 4.25,-16.57a55.92982,55.92982 0 0 1 22.38,-25.65c1.65,-1 0.14,-3.6 -1.51,-2.59a58.72008,58.72008 0 0 0 -22.62995,24.86a57.4708,57.4708 0 0 0 -5,15.87c-1,6.49 -0.09,13.29 -2.49,19.52l2.51,-0.67l-9.42,-10.78c-1.28,-1.45 -3.39,0.68 -2.12,2.12l-0.03005,0z"/>
  <path id="svg_44" fill="#e6e6e6" d="m382.937926,276.077414q77.37,-2.36 154.78,-1a1.501,1.501 0 0 0 0,-3q-77.39,-1.38 -154.78,1c-1.92999,0.06 -1.94,3.06 0,3z"/>
  <path id="svg_45" fill="#e6e6e6" d="m548.497926,246.497414a309.91983,309.91983 0 0 1 50.67,25.46c1.64,1 3.15,-1.57 1.51,-2.59a313.22936,313.22936 0 0 0 -51.34,-25.76c-1.79,-0.71 -2.57,2.19 -0.79,2.89l-0.05,0z"/>
  <path id="svg_46" fill="#e6e6e6" d="m580.517946,232.907414a122.5,122.5 0 0 0 -29.41,74.53c-0.08,1.93 2.92,1.93 3,0a119.13985,119.13985 0 0 1 28.53,-72.41c1.25,-1.46 -0.86,-3.59 -2.12,-2.12z"/>
  <path id="svg_47" fill="#e6e6e6" d="m180.567966,265.187414l111.77,-1.46l12.85,-0.17c2.31,0 4.62,-0.08 6.93,-0.09c3.25,0 5.44,2.7 5.38,6c-0.15,7 -4.55,6.75 -10.31,7l-13.89,0.63l-56.56,2.49c-10.13,0.45 -20.27,1 -30.4,1.35c-9.14,0.28 -26.52,-2.7 -22.46,-16c0.56,-1.85 -2.33,-2.64 -2.9,-0.8c-2,6.54 1.54,13.18 7.24,16.61c8.09,4.86 18.75,3.21 27.68,2.81l69.44,-3.15l16.86,-0.75c4.32,-0.2 10.33,0.68 14.3,-1.33c4.66,-2.35 5.48,-11.68 2.54,-15.61c-1.51,-2 -3.63,-2.18 -6,-2.27c-6.22,-0.24 -12.55,0.17 -18.78,0.25l-34.62,0.46l-79.11,1a1.501,1.501 0 0 0 0,3l0.04,0.03z"/>
  <polygon id="svg_48" fill="#78c0e0" points="509.93701171875,343.0830078125 477.47198486328125,323.52398681640625 486.9530029296875,360.22198486328125 492.6679992675781,346.85198974609375 502.20001220703125,359.6340026855469 505.0270080566406,357.5260009765625 495.4949951171875,344.7439880371094 509.93701171875,343.0830078125 "/>
  <rect id="svg_49" fill="#78c0e0" height="19" width="55" y="364.14987" x="502.3839"/>
  <polygon id="svg_50" fill="#3f3d56" points="316.831 188.083 349.296 168.524 339.815 205.222 334.1 191.852 324.568 204.634 321.741 202.526 331.273 189.744 316.831 188.083"/>
  <rect id="svg_51" fill="#3f3d56" height="19" width="55" y="210.14987" x="268.3839"/>
 </g>
</svg>